<svg width="878" height="318" viewBox="0 0 878 318" fill="none" xmlns="http://www.w3.org/2000/svg">
<path d="M406.255 61.2761L415.021 70.0423C413.18 72.3215 410.988 74.3377 408.446 76.1786C403.975 79.2468 397.488 82.3149 388.722 82.3149C369.787 82.3149 355.411 67.8507 355.411 50.3183C355.411 32.7859 369.787 18.3217 388.722 18.3217C397.225 18.3217 403.8 21.3899 408.095 24.458C410.638 26.2989 412.742 28.3152 414.582 30.5944L405.816 39.3606C404.501 37.695 403.011 36.2924 401.345 34.9775C398.453 32.7859 394.245 30.5944 388.722 30.5944C377.764 30.5944 368.998 39.3606 368.998 50.3183C368.998 61.2761 377.764 70.0423 388.722 70.0423C394.42 70.0423 398.716 67.8507 401.784 65.6592C403.537 64.3442 405.027 62.9416 406.255 61.2761Z" fill="#BF0002"/>
<path d="M430.851 50.3183C430.851 61.2761 439.617 70.0423 450.575 70.0423C461.533 70.0423 470.299 61.2761 470.299 50.3183C470.299 39.3606 461.533 30.5944 450.575 30.5944C439.617 30.5944 430.851 39.3606 430.851 50.3183ZM417.264 50.3183C417.264 32.7859 431.64 18.3217 450.575 18.3217C469.51 18.3217 483.887 32.7859 483.887 50.3183C483.887 67.8507 469.51 82.3149 450.575 82.3149C431.64 82.3149 417.264 67.8507 417.264 50.3183Z" fill="#BF0002"/>
<path d="M493.934 81V19.6366H507.083V68.7273H535.573V81H493.934Z" fill="#BF0002"/>
<path d="M543.459 81V19.6366H556.608V68.7273H585.099V81H543.459Z" fill="#BF0002"/>
<path d="M592.985 81V19.6366H638.569V31.9093H606.134V43.7437H631.556V55.578H606.134V68.7273H639.446V81H592.985Z" fill="#BF0002"/>
<path d="M679.376 57.7696V47.2501H703.922V70.4806C701.993 72.6721 699.714 74.6883 697.084 76.4416C692.613 79.5097 685.951 82.3149 677.185 82.3149C658.25 82.3149 643.873 67.8507 643.873 50.3183C643.873 32.7859 658.25 18.3217 677.185 18.3217C685.688 18.3217 692.263 21.3899 696.558 24.458C699.1 26.2989 701.204 28.3152 703.045 30.5944L694.279 39.3606C692.964 37.695 691.474 36.2924 689.808 34.9775C686.915 32.7859 682.707 30.5944 677.185 30.5944C666.227 30.5944 657.461 39.3606 657.461 50.3183C657.461 61.2761 666.227 70.0423 677.185 70.0423C681.656 70.0423 684.899 68.9903 687.266 67.6754C688.581 66.9741 689.808 66.1851 690.772 65.2208V57.7696H679.376Z" fill="#BF0002"/>
<path d="M715.749 81V19.6366H761.333V31.9093H728.898V43.7437H754.32V55.578H728.898V68.7273H762.21V81H715.749Z" fill="#BF0002"/>
<path d="M359.355 180V118.637H385.216C397.488 118.637 404.94 126.088 404.94 134.854C404.94 139.763 402.836 142.831 400.732 144.848C399.505 145.987 398.102 146.951 396.612 147.565C398.716 148.179 400.644 149.231 402.31 150.546C405.115 152.912 408.008 156.507 408.008 162.468C408.008 172.023 400.031 180 386.969 180H359.355ZM372.505 168.604H386.092C391.352 168.604 394.42 165.623 394.42 161.153C394.42 156.682 391.352 153.701 386.092 153.701H372.505V168.604ZM372.505 142.305H384.339C388.81 142.305 391.352 139.675 391.352 136.169C391.352 132.663 388.81 130.033 384.339 130.033H372.505V142.305Z" fill="#BF0002"/>
<path d="M431.317 180V158.085L408.087 118.637H423.427L437.716 144.935H438.067L452.356 118.637H467.697L444.466 158.085V180H431.317Z" fill="#BF0002"/>
<path d="M487.386 180V118.637H499.221L520.26 144.935L541.298 118.637H553.133V180H539.984V139.676L520.26 164.221L500.536 139.676V180H487.386Z" fill="#BF0002"/>
<path d="M567.131 180V118.637H612.716V130.909H580.281V142.744H605.703V154.578H580.281V167.727H613.592V180H567.131Z" fill="#BF0002"/>
<path d="M635.073 180V130.909H617.54V118.637H665.754V130.909H648.222V180H635.073Z" fill="#BF0002"/>
<path d="M684.626 154.14H699.528L692.252 133.977H691.902L684.626 154.14ZM660.957 180L684.626 118.637H699.528L723.197 180H709.171L703.911 165.974H680.243L674.983 180H660.957Z" fill="#BF0002"/>
<path d="M358.917 253.578V217.637H372.066V253.578C372.066 262.344 377.677 268.042 385.654 268.042C393.631 268.042 399.242 262.344 399.242 253.578V217.637H412.391V253.578C412.391 269.357 401.433 280.315 385.654 280.315C369.875 280.315 358.917 269.357 358.917 253.578Z" fill="#BF0002"/>
<path d="M426.002 279V217.637H437.837L467.642 255.77V217.637H480.791V279H468.957L439.152 240.867V279H426.002Z" fill="#BF0002"/>
<path d="M494.79 279V217.637H507.939V279H494.79Z" fill="#BF0002"/>
<path d="M538.189 279L515.397 217.637H529.423L545.465 262.783H545.816L561.858 217.637H575.884L553.092 279H538.189Z" fill="#BF0002"/>
<path d="M583.311 279V217.637H628.895V229.909H596.46V241.744H621.882V253.578H596.46V266.727H629.772V279H583.311Z" fill="#BF0002"/>
<path d="M639.857 279V217.637H667.032C680.181 217.637 688.509 225.965 688.509 238.237C688.509 245.25 685.967 249.809 683.249 252.526C681.759 254.104 680.006 255.331 677.99 256.208L690.7 279H676.236L665.279 258.838H653.006V279H639.857ZM653.006 246.565H666.593C671.503 246.565 674.921 243.146 674.921 238.237C674.921 233.328 671.503 229.909 666.593 229.909H653.006V246.565Z" fill="#BF0002"/>
<path d="M693.775 270.672L702.542 261.906C703.594 263.133 704.821 264.273 706.311 265.237C708.766 266.903 712.36 268.481 717.006 268.481C724.019 268.481 727.087 265.412 727.087 261.468C727.087 251.036 696.405 255.682 696.405 234.292C696.405 224.65 704.733 216.322 718.759 216.322C725.509 216.322 730.769 218.426 734.188 220.529C736.204 221.757 737.869 223.159 739.36 224.65L730.594 233.416C729.629 232.452 728.665 231.575 727.525 230.786C725.509 229.471 722.704 228.156 719.197 228.156C712.535 228.156 709.993 230.786 709.993 234.292C709.993 244.724 740.675 240.078 740.675 261.468C740.675 271.549 731.908 280.315 717.444 280.315C709.467 280.315 703.594 277.948 699.649 275.494C697.282 274.091 695.353 272.513 693.775 270.672Z" fill="#BF0002"/>
<path d="M749.437 279V217.637H762.587V279H749.437Z" fill="#BF0002"/>
<path d="M788.016 279V229.909H770.483V217.637H818.697V229.909H801.165V279H788.016Z" fill="#BF0002"/>
<path d="M841.476 279V257.085L818.245 217.637H833.586L847.875 243.935H848.226L862.514 217.637H877.855L854.625 257.085V279H841.476Z" fill="#BF0002"/>
<path fill-rule="evenodd" clip-rule="evenodd" d="M270.96 270.9C274.647 267.21 278.143 263.357 281.439 259.358C302.093 234.297 314.88 203.505 317.444 171.139V0H0V171.139C2.97315 208.669 19.6922 244.084 46.4844 270.9C74.7932 299.235 112.697 315.763 152.556 317.312C154.606 317.392 156.662 317.432 158.722 317.432C160.88 317.432 163.033 317.388 165.181 317.301C204.769 315.688 242.409 299.301 270.611 271.249C270.727 271.133 270.844 271.017 270.96 270.9ZM12.5621 158.577V152.03V12.5621H152.556H304.882V158.577C304.882 160.608 304.84 162.634 304.756 164.655C303.666 190.908 295.539 216.229 281.439 238.044C275.888 246.632 269.411 254.677 262.073 262.022C261.62 262.475 261.164 262.925 260.706 263.372C234.978 288.456 200.959 303.144 165.181 304.727C163.034 304.822 160.88 304.87 158.722 304.87C156.662 304.87 154.606 304.826 152.556 304.74C116.034 303.197 81.3247 287.999 55.3713 262.022C29.3956 236.023 14.2069 201.244 12.6882 164.655C12.6043 162.634 12.5621 160.608 12.5621 158.577Z" fill="#BF0002"/>
<path fill-rule="evenodd" clip-rule="evenodd" d="M12.5621 152.03H0V164.655H12.6882C12.6043 162.634 12.5621 160.608 12.5621 158.577V152.03ZM152.556 152.03V164.655H165.181H304.756H317.211V152.03H152.556Z" fill="#BF0002"/>
<path d="M12.5621 158.577C12.5621 160.608 12.6043 162.634 12.6882 164.655H152.556V152.03H12.5621V158.577Z" fill="#BF0002"/>
<path fill-rule="evenodd" clip-rule="evenodd" d="M152.556 164.655V304.74V317.312C154.606 317.392 156.662 317.432 158.722 317.432C160.88 317.432 163.033 317.388 165.181 317.301V304.727V164.655V0.263027H152.556V12.5621V152.03V164.655Z" fill="#BF0002"/>
<path d="M127.831 279.861V190.169H35.7717C37.7877 197.214 41.2414 206.185 46.2024 215.725H84.1942L60.9795 238.943C66.0767 245.537 71.9137 251.888 78.5134 257.556L102.275 233.794V272.825C110.083 276.329 118.595 278.799 127.831 279.861Z" fill="#BF0002"/>
<path d="M281.439 190.169H189.379V279.861C198.452 278.667 206.871 276.175 214.631 272.728V215.725H271.907C276.922 206.007 280.107 196.979 281.439 190.169Z" fill="#BF0002"/>
<path d="M262.413 231.507H230.413V263.895C243.568 254.913 254.247 243.29 262.413 231.507Z" fill="#BF0002"/>
<path fill-rule="evenodd" clip-rule="evenodd" d="M81.8014 74.747L35.7717 38.1389V69.7022L81.8014 106.31L127.831 69.7022V38.1389L81.8014 74.747Z" fill="#BF0002"/>
<path d="M35.7717 126.516H81.8014L35.7717 89.9079V126.516Z" fill="#BF0002"/>
<path d="M127.831 126.516V89.9079L81.8014 126.516H127.831Z" fill="#BF0002"/>
<path fill-rule="evenodd" clip-rule="evenodd" d="M281.439 38.1389L281.439 52.4249H251.071L251.071 76.2333H281.439L281.439 86.4306H251.071V99.0559H281.439V126.516H230.413V38.1389H281.439ZM214.631 126.516H189.379V38.1389H214.631V126.516Z" fill="#BF0002"/>
</svg>
