<svg width="353" height="353" viewBox="0 0 353 353" fill="none" xmlns="http://www.w3.org/2000/svg">
<path fill-rule="evenodd" clip-rule="evenodd" d="M301.309 301.215C305.409 297.112 309.297 292.828 312.962 288.381C335.93 260.515 350.149 226.277 353 190.29V0H0V190.29C3.30616 232.02 21.8979 271.398 51.6909 301.215C83.1705 332.72 125.32 351.098 169.643 352.821C171.923 352.909 174.209 352.954 176.5 352.954C178.899 352.954 181.294 352.905 183.682 352.808C227.704 351.015 269.56 332.794 300.921 301.603C301.05 301.474 301.18 301.344 301.309 301.215ZM13.9691 176.322V169.042V13.9679H169.643H339.031V176.322C339.031 178.58 338.984 180.833 338.891 183.08C337.679 212.272 328.641 240.426 312.962 264.682C306.789 274.231 299.586 283.177 291.427 291.343C290.923 291.847 290.417 292.347 289.907 292.844C261.297 320.736 223.467 337.067 183.682 338.827C181.295 338.933 178.9 338.986 176.5 338.986C174.209 338.986 171.923 338.937 169.643 338.841C129.03 337.126 90.4336 320.227 61.5732 291.343C32.6881 262.434 15.7982 223.764 14.1093 183.08C14.016 180.833 13.9691 178.58 13.9691 176.322Z" fill="#BF0002"/>
<path fill-rule="evenodd" clip-rule="evenodd" d="M13.9691 169.042H0V183.08H14.1093C14.016 180.833 13.9691 178.58 13.9691 176.322V169.042ZM169.643 169.042V183.08H183.682H338.891H352.74V169.042H169.643Z" fill="#BF0002"/>
<path d="M13.9691 176.322C13.9691 178.58 14.016 180.833 14.1093 183.08H169.643V169.042H13.9691V176.322Z" fill="#BF0002"/>
<path fill-rule="evenodd" clip-rule="evenodd" d="M169.643 183.08V267.95V338.841V352.821C171.923 352.909 174.209 352.954 176.5 352.954C178.899 352.954 181.294 352.905 183.682 352.808V338.827V183.08V0.292461H169.643V13.9679V169.042V183.08Z" fill="#BF0002"/>
<path d="M142.149 311.178V211.449H39.7783C42.0202 219.283 45.8606 229.258 51.3774 239.865H93.6244L67.8095 265.681C73.4777 273.013 79.9685 280.076 87.3073 286.377L113.731 259.956V303.355C122.413 307.252 131.879 309.998 142.149 311.178Z" fill="#BF0002"/>
<path d="M312.962 211.449H210.591V311.178C220.68 309.851 230.042 307.08 238.671 303.248V239.865H302.363C307.939 229.06 311.481 219.022 312.962 211.449Z" fill="#BF0002"/>
<path d="M291.804 257.413H256.22V293.426C270.849 283.439 282.724 270.515 291.804 257.413Z" fill="#BF0002"/>
<path fill-rule="evenodd" clip-rule="evenodd" d="M90.9637 83.1114L39.7783 42.4068V77.5021L90.9637 118.207L142.149 77.5021V42.4068L90.9637 83.1114Z" fill="#BF0002"/>
<path d="M39.7783 140.674H90.9637L39.7783 99.9689V140.674Z" fill="#BF0002"/>
<path d="M142.149 140.674V99.9689L90.9637 140.674H142.149Z" fill="#BF0002"/>
<path fill-rule="evenodd" clip-rule="evenodd" d="M312.962 42.4068L312.962 58.2914H279.193L279.193 84.7641H312.962L312.962 96.1025H279.193V110.141H312.962V140.674H256.22V42.4068H312.962ZM238.671 140.674H210.591V42.4068H238.671V140.674Z" fill="#BF0002"/>
</svg>
